<svg width="390" height="566" viewBox="0 0 390 566" fill="none" xmlns="http://www.w3.org/2000/svg">
<path d="M402.115 143C382.819 150.957 345.951 176.297 352.848 214C400.637 201.269 405.604 161.362 402.115 143Z" fill="#54AB62"/>
<path d="M360.62 203.242C366.127 198.222 380.23 182.229 392.585 158.419M378.218 165.949C380.779 168.34 387.237 173.265 392.585 173.838M369.599 176.707C372.113 179.456 378.865 185.098 385.761 185.672M361.697 187.465C364.092 190.094 370.173 195.569 375.345 196.429M402.115 143C382.819 150.957 345.951 176.297 352.848 214C400.637 201.269 405.604 161.362 402.115 143Z" stroke="#108C24" stroke-width="0.7"/>
<path d="M331.115 1C311.819 8.9569 274.951 34.2966 281.848 72C329.637 59.269 334.604 19.3621 331.115 1Z" fill="#54AB62"/>
<path d="M289.62 61.2424C295.127 56.2222 309.23 40.2293 321.585 16.4192M307.218 23.9495C309.779 26.3401 316.237 31.2646 321.585 31.8384M298.599 34.7071C301.113 37.4562 307.865 43.098 314.761 43.6717M290.697 45.4646C293.092 48.0943 299.173 53.5687 304.345 54.4293M331.115 1C311.819 8.9569 274.951 34.2966 281.848 72C329.637 59.269 334.604 19.3621 331.115 1Z" stroke="#108C24" stroke-width="0.7"/>
<path d="M90.1147 494C70.8186 501.957 33.9507 527.297 40.8481 565C88.6367 552.269 93.6044 512.362 90.1147 494Z" fill="#54AB62"/>
<path d="M48.6197 554.242C54.1268 549.222 68.2296 533.229 80.5845 509.419M66.2183 516.949C68.7791 519.34 75.2373 524.265 80.5845 524.838M57.5986 527.707C60.1127 530.456 66.8648 536.098 73.7606 536.672M49.6972 538.465C52.0915 541.094 58.1732 546.569 63.3451 547.429M90.1147 494C70.8186 501.957 33.9507 527.297 40.8481 565C88.6367 552.269 93.6044 512.362 90.1147 494Z" stroke="#108C24" stroke-width="0.7"/>
<path d="M41.2567 419.007C28.9158 402.174 10.6098 361.355 36.1132 332.742C70.3049 368.473 53.7888 405.14 41.2567 419.007Z" fill="#54AB62"/>
<path d="M37.1547 345.972C39.2466 353.124 42.972 374.119 41.1382 400.881M32.7858 386.977C36.2163 386.267 44.2937 385.421 49.159 387.712M31.02 373.305C34.5972 372.265 43.2986 370.959 49.4864 374.056M29.8676 360.007C33.2804 359.007 41.3222 357.495 46.1869 359.45M41.2567 419.007C28.9158 402.174 10.6098 361.355 36.1132 332.742C70.3049 368.473 53.7888 405.14 41.2567 419.007Z" stroke="#108C24" stroke-width="0.7"/>
<path d="M25.1147 210C5.81861 217.957 -31.0493 243.297 -24.1519 281C23.6367 268.269 28.6044 228.362 25.1147 210Z" fill="#54AB62"/>
<path d="M-16.3803 270.242C-10.8732 265.222 3.22958 249.229 15.5845 225.419M1.21831 232.949C3.77906 235.34 10.2373 240.265 15.5845 240.838M-7.40141 243.707C-4.88732 246.456 1.86479 252.098 8.76056 252.672M-15.3028 254.465C-12.9085 257.094 -6.82676 262.569 -1.65493 263.429M25.1147 210C5.81861 217.957 -31.0493 243.297 -24.1519 281C23.6367 268.269 28.6044 228.362 25.1147 210Z" stroke="#108C24" stroke-width="0.7"/>
<path d="M169.773 493.273C153.292 480.465 124.503 446.223 141.192 411.717C183.864 436.714 178.026 476.503 169.773 493.273Z" fill="#54AB62"/>
<path d="M145.818 424.156C149.789 430.461 159.124 449.632 164.692 475.873M152.85 464.789C155.955 463.166 163.492 460.139 168.798 461.01M147.406 452.124C150.562 450.144 158.572 446.504 165.372 447.787M142.655 439.651C145.663 437.754 152.983 434.097 158.197 434.644M169.773 493.273C153.292 480.465 124.503 446.223 141.192 411.717C183.864 436.714 178.026 476.503 169.773 493.273Z" stroke="#108C24" stroke-width="0.7"/>
<path d="M151.92 86C171.973 93.9569 210.286 119.297 203.119 157C153.456 144.269 148.293 104.362 151.92 86Z" fill="#54AB62"/>
<path d="M195.042 146.242C189.319 141.222 174.663 125.229 161.824 101.419M176.754 108.949C174.092 111.34 167.381 116.265 161.824 116.838M185.711 119.707C183.099 122.456 176.082 128.098 168.915 128.672M193.923 130.465C191.434 133.094 185.114 138.569 179.739 139.429M151.92 86C171.973 93.9569 210.286 119.297 203.119 157C153.456 144.269 148.293 104.362 151.92 86Z" stroke="#108C24" stroke-width="0.7"/>
</svg>
